<?xml version="1.0" encoding="UTF-8" standalone="no"?>
<!-- Created with Inkscape (http://www.inkscape.org/) -->

<svg
   xmlns:dc="http://purl.org/dc/elements/1.1/"
   xmlns:cc="http://creativecommons.org/ns#"
   xmlns:rdf="http://www.w3.org/1999/02/22-rdf-syntax-ns#"
   xmlns:svg="http://www.w3.org/2000/svg"
   xmlns="http://www.w3.org/2000/svg"
   xmlns:sodipodi="http://sodipodi.sourceforge.net/DTD/sodipodi-0.dtd"
   xmlns:inkscape="http://www.inkscape.org/namespaces/inkscape"
   id="svg3066"
   version="1.1"
   inkscape:version="0.48.4 r9939"
   width="1224"
   height="1348"
   sodipodi:docname="moustaches.svg">
  <metadata
     id="metadata3072">
    <rdf:RDF>
      <cc:Work
         rdf:about="">
        <dc:format>image/svg+xml</dc:format>
        <dc:type
           rdf:resource="http://purl.org/dc/dcmitype/StillImage" />
      </cc:Work>
    </rdf:RDF>
  </metadata>
  <defs
     id="defs3070" />
  <sodipodi:namedview
     pagecolor="#ffffff"
     bordercolor="#666666"
     borderopacity="1"
     objecttolerance="10"
     gridtolerance="10"
     guidetolerance="10"
     inkscape:pageopacity="0"
     inkscape:pageshadow="2"
     inkscape:window-width="605"
     inkscape:window-height="747"
     id="namedview3068"
     showgrid="false"
     inkscape:zoom="0.38562092"
     inkscape:cx="612"
     inkscape:cy="617.38278"
     inkscape:window-x="65"
     inkscape:window-y="24"
     inkscape:window-maximized="0"
     inkscape:current-layer="svg3066" />
  <path
     style="fill:#000000"
     d="m 141.5,1277.4932 c -2.2,-0.8047 -4.09353,-1.4699 -4.20785,-1.4781 -0.11431,-0.01 -1.31058,-1.9276 -2.65837,-4.2651 -4.61626,-8.0061 -4.74985,-10.6418 -4.8782,-96.25 -0.0178,-11.8753 0.31501,-14.9804 2.19302,-20.4598 4.26962,-12.4574 8.33651,-15.3978 23.77646,-17.1901 7.87934,-0.9147 14.42913,-0.815 33.77494,0.5145 30.55879,2.1 65.37041,2.1046 96.31638,0.013 36.96971,-2.4991 47.25759,-0.7892 53.86479,8.9524 4.54166,6.6962 5.81296,13.6735 5.67945,31.1704 -0.56271,73.7442 -0.90433,84.9418 -2.73821,89.7519 -2.07887,5.4526 -5.21028,8.2908 -10.81161,9.799 -5.59134,1.5056 -10.48127,-1.0423 -13.53186,-7.0509 -4.33044,-8.5294 -5.33267,-16.5784 -6.10128,-49 -0.68931,-29.0766 -0.83107,-30.7215 -3.03768,-35.2461 -2.62158,-5.3755 -5.72847,-8.1787 -11.0057,-9.9297 -5.21309,-1.7297 -104.77366,-2.4264 -115.13428,-0.8056 -7.94928,1.2436 -12.8718,3.5864 -15.231,7.249 -3.63609,5.645 -4.0714,9.213 -4.84752,39.7324 -0.81207,31.9332 -1.78648,39.8947 -5.85993,47.8794 -3.46466,6.7913 -8.83546,9.0739 -15.56155,6.6138 z"
     id="path3449" />
  <path
     id="path3445"
     style="fill:#000000"
     d="m 1076.108,1272.108 c -4.9842,-4.9842 -9.9505,-15.1519 -15.6323,-32.0048 -6.0671,-17.9956 -7.5961,-27.1752 -8.0954,-48.6032 -0.2307,-9.9 -0.6108,-18.5345 -0.8446,-19.1877 -0.868,-2.4251 -8.5609,-3.5147 -28.0357,-3.971 -11,-0.2577 -21.2345,-0.9433 -22.7434,-1.5235 -3.44518,-1.3248 -5.13529,-6.9058 -4.5484,-15.0193 0.76475,-10.5726 4.2214,-11.7985 33.2687,-11.7985 32.0905,0 43.8014,2.7561 48.8649,11.5 0.8053,1.3906 1.168,11.1405 1.1904,32 0.039,35.9282 0.8376,42.2277 7.4832,59 5.9726,15.0738 7.558,22.2326 5.9815,27.0093 -1.4556,4.4106 -4.4102,6.4907 -9.2194,6.4907 -3.0563,0 -4.5206,-0.7431 -7.6695,-3.892 z m -204.32375,0.8301 c -2.94184,-2.9418 -3.03864,-3.3109 -2.46882,-9.4131 0.38784,-4.1533 2.38535,-10.9665 5.77218,-19.6881 6.65628,-17.1409 8.17393,-27.3468 7.85697,-52.8369 -0.43143,-34.6966 -0.39677,-35.4992 1.71248,-39.659 4.43898,-8.7543 17.76971,-11.6601 51.24854,-11.1711 29.30044,0.4281 30.0944,0.8051 30.0944,14.2907 0,13.2972 0.74312,12.8917 -25.16098,13.73 -19.52733,0.632 -27.92475,1.5618 -29.64533,3.2824 -0.35632,0.3563 -0.7415,8.1648 -0.85596,17.3523 -0.11665,9.3629 -0.90599,21.0413 -1.79603,26.5724 -1.93511,12.0256 -9.23018,34.7504 -14.59879,45.4765 -7.19048,14.3662 -15.3915,18.8311 -22.15866,12.0639 z" />
  <path
     id="path3441"
     style="fill:#000000"
     d="m 714.63961,1260.0657 c -4.79587,-20.0593 -11.82038,-33.9852 -22.37994,-44.3677 -10.37912,-10.2051 -17.90287,-13.7412 -34.55945,-16.243 -16.29895,-2.4481 -23.82743,-7.0491 -29.21073,-17.8519 -5.14891,-10.3326 -2.30719,-24.4835 6.35074,-31.625 10.01589,-8.2615 24.24778,-9.2041 37.80479,-2.5039 15.86101,7.839 35.73394,32.3798 44.44432,54.8837 5.15265,13.3123 7.16799,25.1652 6.65532,39.1421 -0.41579,11.3354 -3.92292,30.5 -5.58151,30.5 -0.36862,0 -1.95421,-5.3704 -3.52354,-11.9343 z m -215.9616,6.1843 c -2.99907,-10.8762 -3.91838,-19.3009 -3.44682,-31.5871 0.60917,-15.8715 3.25651,-25.9761 10.78439,-41.1629 6.95797,-14.037 13.28547,-22.8637 24.53655,-34.2276 6.39051,-6.4546 9.8152,-9.0203 15.89224,-11.9063 17.27509,-8.2039 35.20197,-4.3308 43.23877,9.3417 2.49236,4.2401 2.81686,5.7714 2.81686,13.2922 0,7.4145 -0.34032,9.0747 -2.66489,13 -5.99219,10.1186 -12.89192,14.1054 -28.45751,16.4433 -14.44759,2.17 -20.7345,4.6328 -30.14343,11.8084 -6.93595,5.2896 -13.55158,14.1701 -18.80899,25.2483 -4.34873,9.1634 -8.75595,22.8545 -9.97603,30.9905 -0.37193,2.4802 -1.01584,4.5095 -1.43092,4.5095 -0.41507,0 -1.46817,-2.5875 -2.34022,-5.75 z" />
  <path
     id="path3437"
     style="fill:#000000"
     d="m 304,1084.3803 c -43.83616,-8.0585 -60.0503,-20.0798 -59.97804,-44.4682 0.0262,-8.8241 2.04704,-14.0095 7.23529,-18.5648 4.9496,-4.3458 9.67158,-5.681 18.12962,-5.1262 10.44139,0.6849 15.6067,3.7481 30.58201,18.1359 13.64939,13.1139 20.9844,17.8973 30.31892,19.7719 19.50199,3.9166 35.89336,-17.2596 30.28993,-39.1319 -1.65089,-6.4441 -5.86397,-14.1361 -9.58916,-17.50734 C 349.03756,995.72402 349,995.76051 349,999.42194 c 0,2.82636 -0.73966,4.47156 -3.04827,6.78016 -2.70216,2.7022 -3.52518,2.9843 -7.24844,2.4849 -7.15698,-0.9599 -10.62674,-7.3714 -7.59283,-14.03008 2.67607,-5.87333 11.63256,-6.11688 22.47949,-0.61126 20.93577,10.62644 31.15556,35.94164 23.49658,58.20284 -4.76882,13.8608 -15.37374,23.8564 -31.3228,29.5232 -6.48858,2.3054 -8.97116,2.6068 -23.26373,2.8245 -8.8,0.134 -17.125,0.037 -18.5,-0.2159 z m -166.51009,-0.3968 c -17.4505,-3.4697 -31.07735,-13.4842 -37.773559,-27.7602 -2.712989,-5.7839 -3.209752,-8.1 -3.555437,-16.5766 -0.296462,-7.2696 0.05425,-11.5382 1.33749,-16.2789 4.546186,-16.7949 21.407416,-32.08237 36.597016,-33.18108 5.14962,-0.37249 6.03957,-0.14264 8.33488,2.15268 3.80274,3.80273 3.59611,9.788 -0.47857,13.8627 -2.70216,2.7022 -3.52518,2.9843 -7.24844,2.4849 -5.36007,-0.7189 -8.68714,-4.3309 -8.74393,-9.49276 l -0.0406,-3.69424 -3.03588,3.5 c -7.42147,8.556 -10.86674,20.3215 -8.89119,30.3631 3.79335,19.2812 18.46887,29.2086 34.96403,23.6518 8.62877,-2.9068 13.50853,-6.4323 27.15903,-19.6217 14.13965,-13.6621 19.16087,-16.5273 30.11494,-17.1842 6.82708,-0.4095 8.34505,-0.1623 13,2.117 12.02876,5.8899 15.81677,22.3256 8.81922,38.2655 -5.11693,11.6559 -22.35563,20.765 -49.93252,26.3848 -10.41003,2.1214 -32.29401,2.664 -40.62644,1.0072 z" />
  <path
     id="path3433"
     style="fill:#000000"
     d="m 1015.2759,1079.9364 c -6.9091,-0.8988 -16.89912,-5.28 -22.30952,-9.7839 -11.89784,-9.9044 -12.63974,-28.2082 -1.53842,-37.9553 9.79884,-8.6035 26.82294,-6.2157 43.44524,6.0937 20.7445,15.3618 40.2154,17.7961 54.7115,6.84 7.1468,-5.4016 10.8597,-13.1228 10.8597,-22.5835 0,-6.0667 -0.4991,-8.2153 -3.165,-13.6251 -1.7407,-3.5324 -5.1032,-8.3928 -7.4722,-10.80104 -3.7148,-3.77635 -3.9634,-4.27444 -1.8072,-3.62169 8.5294,2.58218 16.1879,8.80103 20.5619,16.69663 2.7523,4.9681 2.9381,6.0007 2.9381,16.3246 0,10.5106 -0.158,11.3443 -3.4115,18 -8.8564,18.1174 -30.7453,30.9583 -58.5885,34.3704 -10.1152,1.2396 -24.8935,1.2591 -34.2241,0.045 z m -102.64113,-0.071 c -32.15248,-4.1291 -55.5055,-20.4801 -61.21893,-42.8637 -4.7202,-18.4924 4.03189,-35.1382 22.08362,-42.00149 2.029,-0.77143 1.60876,0.0964 -2.53956,5.24439 -11.28261,14.0016 -11.98499,29.629 -1.84924,41.1438 12.45156,14.1457 34.2561,13.9273 54.93608,-0.5502 11.74016,-8.219 14.47439,-9.7549 21.23598,-11.9291 17.11271,-5.5025 32.0375,2.5027 33.43681,17.9344 0.76903,8.481 -1.05648,14.2027 -6.44268,20.1935 -5.69884,6.3385 -16.15085,11.5849 -25.77685,12.9388 -8.32116,1.1704 -24.29717,1.1183 -33.86523,-0.1104 z" />
  <path
     style="fill:#000000"
     d="m 503,1074.3589 c 0,-4.9288 3.24138,-17.9352 5.96878,-23.9503 11.98381,-26.4297 37.93265,-44.0133 73.87526,-50.0598 13.58688,-2.28562 40.5291,-2.23672 53.65596,0.097 25.15824,4.4735 43.49548,13.296 58.07945,27.9435 11.39991,11.4496 19.21908,27.1755 20.81365,41.8603 l 0.62437,5.75 -2.82661,0 c -1.55464,0 -10.82078,-2.0075 -20.59143,-4.4611 -38.85043,-9.7562 -67.40975,-21.912 -79.83706,-33.9812 l -3.57425,-3.4713 -3.66898,3.4603 c -14.58652,13.7569 -49.67378,27.7318 -93.76914,37.3474 l -8.75,1.908 0,-2.4432 z"
     id="path3431" />
  <path
     style="fill:#000000"
     d="m 882.5,930.99848 c -16.98795,-2.55502 -31.62002,-11.47278 -37.39376,-22.79024 -4.12726,-8.09009 -2.15378,-18.51008 4.3075,-22.74368 5.65366,-3.70442 16.10092,-1.23758 19.06933,4.50271 2.08246,4.02702 1.90961,10.87652 -0.36875,14.61277 -1.76048,2.88698 -7.35739,6.41996 -10.17044,6.41996 -0.84003,0 -0.68411,0.62956 0.47244,1.90753 5.82425,6.43573 25.10611,9.11045 37.30464,5.1748 18.79902,-6.0652 28.13766,-21.75522 26.66992,-44.80863 -1.30125,-20.4385 3.46874,-31.11537 16.58349,-37.1195 4.24982,-1.94564 7.18993,-2.52605 13.04346,-2.57496 6.59557,-0.0551 8.40707,0.35538 14.23966,3.22676 5.73602,2.82383 7.27706,4.19387 10.87802,9.67093 l 4.19528,6.38103 3.08461,-5.13805 c 5.6673,-9.44008 14.19511,-14.05283 26.0846,-14.10933 11.8054,-0.0561 22.0565,5.76817 26.6511,15.14209 2.1073,4.29947 2.3751,6.49763 2.8379,23.30062 l 0.511,18.55329 3.7659,7.61832 c 4.5092,9.12217 11.2009,15.61453 19.5325,18.95065 4.7184,1.88938 7.5984,2.28525 16.7016,2.29578 11.7312,0.0136 14.6977,-0.67724 21.5889,-5.02743 l 4.3681,-2.75751 -3.9341,-1.36203 c -8.0354,-2.78193 -11.9145,-9.73618 -9.6489,-17.29808 3.4523,-11.52291 20.2108,-12.66085 25.1826,-1.70996 2.5265,5.56467 2.4118,10.13583 -0.4059,16.18672 -5.114,10.98175 -19.5316,20.26436 -35.8684,23.09336 -27.1654,4.70418 -56.8557,-6.68871 -83.53169,-32.0532 -7.8944,-7.50627 -10.68523,-10.92932 -13.46365,-16.5137 l -3.50496,-7.04463 -3.23525,6.57174 c -4.09039,8.30876 -12.72455,17.5638 -25.04086,26.84155 -24.36438,18.35343 -48.11791,25.96751 -70.50589,22.60032 z"
     id="path3429" />
  <path
     id="path3425"
     style="fill:#000000"
     d="m 722.5,907.35654 c -26.0986,-9.8524 -68.33589,-23.76023 -84.89192,-27.95309 -16.28129,-4.12327 -19.65938,-5.99882 -21.64591,-12.01807 -1.61664,-4.89846 0.76605,-11.02379 5.55321,-14.27604 3.11875,-2.11879 4.22319,-2.31706 9.71146,-1.74342 22.34412,2.33542 51.05779,17.02615 89.27316,45.67469 13.85978,10.39012 21.63268,16.92124 20,16.80484 -0.55,-0.0392 -8.65,-2.95922 -18,-6.48891 z M 478,913.46723 c 0,-0.93262 -0.73099,-0.34699 20.28818,-16.25394 36.38254,-27.53368 64.29804,-42.18906 86.52955,-45.4272 6.66838,-0.97128 8.14999,-0.8969 11.22621,0.56363 4.60795,2.18777 6.95606,6.29071 6.95606,12.15457 0,3.97264 -0.50045,5.18997 -3.25,7.9055 -2.80122,2.76655 -5.32131,3.73675 -18.25,7.02593 -21.98815,5.594 -71.71534,22.2538 -101.75,34.08869 -0.9625,0.37926 -1.75,0.35353 -1.75,-0.0572 z" />
  <path
     style="fill:#000000"
     d="m 165.63282,911.50669 c -14.33795,-2.97274 -27.518,-8.80912 -38.44518,-17.02428 -6.29447,-4.73224 -15.98958,-15.39643 -19.5807,-21.53788 l -1.89305,-3.23746 4.39305,3.00174 c 12.53073,8.56215 31.07315,16.34573 42.50636,17.84297 6.67668,0.87435 15.03078,-1.49876 18.53491,-5.26511 1.42595,-1.53267 4.55095,-6.61167 6.94444,-11.28667 5.37249,-10.49366 11.33481,-17.07722 18.10235,-19.98854 7.82867,-3.36781 19.04613,-2.64731 28.08407,1.80384 4.16619,2.05182 7.93584,4.81377 9.89143,7.24724 l 3.1598,3.93195 4.58485,-4.66087 c 6.42266,-6.52914 13.60316,-9.60967 23.63264,-10.1387 6.74097,-0.35557 8.89579,-0.0597 13.27011,1.82209 6.99388,3.00868 13.78161,10.61492 18.94384,21.2282 4.92956,10.13494 8.2313,13.19635 15.96354,14.80156 4.84068,1.00492 6.99835,0.92344 13.70365,-0.51745 9.51358,-2.04437 22.34585,-7.42282 33.02728,-13.8429 4.28839,-2.57753 7.99304,-4.68642 8.23256,-4.68642 0.23953,0 -1.05496,2.10158 -2.87663,4.67018 -13.15839,18.55363 -31.9685,30.6057 -55.31214,35.43979 -11.2127,2.32197 -32.95357,2.53491 -43.95235,0.4305 -11.42293,-2.18557 -23.45591,-9.59482 -27.13413,-16.7077 l -1.53403,-2.96649 -2.81166,3.88139 c -4.69571,6.48223 -12.80805,12.15335 -21.14535,14.78214 -7.52434,2.37246 -38.53305,2.99975 -48.28966,0.97688 z"
     id="path3423" />
  <path
     style="fill:#000000"
     d="m 166,774.57686 c -21.01508,-3.79923 -36.30671,-14.298 -44.21103,-30.35396 -2.89399,-5.87852 -3.29439,-7.73428 -3.63105,-16.82877 -0.31716,-8.5681 -0.019,-11.30166 1.84329,-16.89777 4.19144,-12.59527 15.23063,-23.78963 27.99879,-28.39234 9.77887,-3.52512 10.84955,-3.5509 5.78602,-0.13933 -7.13578,4.80777 -14.3411,13.25846 -16.8724,19.78865 -5.76479,14.8719 -0.61988,31.33771 11.6473,37.27615 3.70185,1.79204 5.81223,2.11388 11.72667,1.78838 9.3877,-0.51665 17.61234,-4.4692 27.71241,-13.31787 9.87932,-8.65528 18.24817,-12.68795 27.57267,-13.28636 9.03625,-0.57991 14.96207,1.78094 19.21839,7.65662 l 2.92939,4.04392 2.38978,-3.64469 c 1.31437,-2.00457 4.41477,-4.72371 6.88977,-6.04254 3.90657,-2.08164 5.51349,-2.34295 12.18533,-1.98152 9.36459,0.50731 17.54214,4.16316 26.13808,11.68527 12.35578,10.81226 21.1651,15.0693 31.18373,15.0693 14.38395,0 23.8193,-10.66906 23.92009,-27.04775 0.0402,-6.5341 -0.38605,-8.4263 -3.17402,-14.08946 -3.0601,-6.21595 -9.26028,-13.10484 -16.75321,-18.61414 l -3,-2.2058 5.5,1.57361 c 22.94886,6.56592 37.86718,28.86489 34.18348,51.09533 -1.67709,10.12088 -6.92641,19.88684 -14.46984,26.92 -7.69172,7.17143 -13.53593,10.41188 -25.23559,13.99243 -8.29241,2.53779 -10.3145,2.75142 -26.47805,2.79736 -18.72611,0.0532 -24.03375,-0.8713 -34.00239,-5.92279 -6.35146,-3.21853 -14.19717,-10.51384 -17.01065,-15.8173 l -2.35642,-4.4419 -1.84172,3.72244 c -4.1514,8.39072 -15.54137,16.79978 -27.78882,20.51612 -7.52872,2.28449 -31.91261,2.92237 -42,1.09871 z"
     id="path3421" />
  <path
     style="fill:#000000"
     d="m 541.01495,761.11235 c -12.15789,-4.35366 -13.51647,-12.67262 -5.43003,-33.2494 4.69765,-11.95365 6.85656,-16.25115 11.07178,-22.03933 8.97274,-12.32103 23.59358,-15.7978 52.3433,-12.44703 7.01396,0.81747 12.49203,0.9231 16.5,0.31814 11.1427,-1.68186 34.38186,-1.38635 40.51608,0.5152 11.51063,3.56819 18.80294,12.31534 26.66341,31.98286 10.38854,25.99292 6.06896,35.65029 -16.38729,36.63735 -10.58644,0.46533 -22.76443,-1.32427 -43.26369,-6.35774 l -13.63316,-3.34754 -7.40913,1.94521 c -28.51454,7.48625 -50.77768,9.69253 -60.97127,6.04228 z"
     id="path3419" />
  <path
     id="path3415"
     style="fill:#000000"
     d="m 1056,762.31019 c -6.5657,-1.09633 -14.6383,-4.02184 -27,-9.78487 -15.6741,-7.30723 -23.8898,-10.03306 -33.26678,-11.03725 L 989,740.76701 989,730.3835 c 0,-11.80714 -0.48797,-11.31616 9.20078,-9.25755 6.13252,1.30299 15.70872,5.91518 25.69592,12.37582 3.8515,2.49152 11.6707,6.79961 17.3761,9.57354 17.183,8.35427 26.786,8.82933 41.289,2.04256 14.8635,-6.95546 21.0216,-19.58789 15.1882,-31.15598 -6.2976,-12.48852 -26.75,-11.04453 -26.75,1.88861 0,3.13488 -0.5721,4.45436 -2.6349,6.07692 -1.4491,1.13992 -3.1884,2.07258 -3.8651,2.07258 -0.6767,0 -2.416,-0.93266 -3.8651,-2.07258 -2.1836,-1.7176 -2.6311,-2.8737 -2.6129,-6.75 0.061,-13.01879 11.42,-22.70304 26.478,-22.57431 8.3904,0.0717 12.8058,1.79403 18.8263,7.34358 6.4009,5.90007 9.117,12.59672 9.1475,22.55331 0.021,6.64889 -0.4349,8.98107 -2.6963,13.80897 -7.9808,17.0387 -33.5153,29.38456 -53.7775,26.00122 z m -164.5,0.10747 c -8.60298,-2.07634 -11.79748,-3.13934 -17.41411,-5.7947 -7.98628,-3.77565 -16.77445,-11.79742 -20.57544,-18.7811 -3.97807,-7.30901 -4.67338,-18.77532 -1.62769,-26.84186 4.50918,-11.94263 13.92847,-18.46802 26.58159,-18.41491 15.27644,0.0641 25.78568,9.07086 25.96361,22.25159 0.0607,4.49693 -0.3114,5.64743 -2.36473,7.31153 C 897.39419,725.93217 892,722.61237 892,715.95489 c 0,-9.70377 -14.63085,-14.34361 -23.00648,-7.29598 -6.53775,5.50115 -8.30238,15.10559 -4.22017,22.9693 6.42798,12.38246 26.49306,20.82051 41.35263,17.39019 7.55428,-1.74391 21.41264,-8.45607 34.72913,-16.82073 12.98266,-8.15496 20.29234,-11.2039 27.55701,-11.49429 L 973.5,720.5 l 0.28366,10.1299 0.28365,10.1299 -6.6958,0.71706 c -10.47592,1.12187 -16.69671,3.10442 -31.30205,9.97585 -7.4632,3.51124 -16.44626,7.34724 -19.96235,8.52445 -6.15241,2.05985 -20.35001,3.46795 -24.60711,2.4405 z" />
  <path
     style="fill:#000000"
     d="M 893.05815,606.94785 C 882.42453,605.6164 871.72479,602.49054 862.5,598.0205 c -7.91012,-3.83299 -21.03288,-12.82095 -20.09232,-13.76152 0.26744,-0.26744 4.67262,0.31213 9.78929,1.28794 18.64545,3.55589 36.05029,1.95315 49.3951,-4.54861 8.64854,-4.21368 14.4217,-9.7114 22.41957,-21.34992 7.6991,-11.20375 12.70097,-15.57596 21.63959,-18.91545 5.36258,-2.00348 8.05163,-2.2144 32.34877,-2.53736 28.6228,-0.38045 35.045,0.2733 43.1798,4.39551 7.0368,3.56585 11.5757,7.98557 17.3648,16.90891 9.2475,14.25437 19.6541,22.12423 34.4554,26.05649 8.6418,2.29588 25.7446,2.32438 37.3632,0.0622 4.8748,-0.94911 9.0733,-1.51555 9.3301,-1.25876 0.9233,0.9233 -10.2633,8.90373 -17.6513,12.59228 -8.6815,4.33438 -17.7508,7.41919 -27.042,9.19798 -9.3578,1.79154 -33.5414,1.48951 -45,-0.56201 -17.3385,-3.10424 -42.62052,-12.81128 -46.94815,-18.02575 -1.10239,-1.32831 -1.63325,-1.22542 -4.40269,0.8533 -8.34555,6.26408 -26.02174,13.01881 -43.16781,16.49602 -11.77613,2.38819 -31.8981,3.35392 -42.4232,2.03605 z"
     id="path3413" />
  <path
     style="fill:#000000"
     d="M 504.60781,604.46495 C 501.9181,601.77525 501,598.50011 501,591.59486 c 0,-8.38595 3.29595,-20.82612 7.26834,-27.43344 1.77741,-2.95639 5.51119,-7.46465 8.29727,-10.01834 11.25094,-10.31247 23.65912,-14.34401 44.43439,-14.43719 14.73442,-0.0661 24.05106,1.10499 39.73206,4.9942 l 10.23207,2.53777 10.76793,-2.59952 c 17.31982,-4.18122 22.98009,-4.93331 37.26794,-4.95179 15.39645,-0.0199 23.56076,1.54854 33.08393,6.35582 15.69535,7.92298 24.26463,22.08605 25.57356,42.26724 0.98517,15.1894 -2.25882,19.51748 -12.59844,16.80865 C 702.55157,604.46134 690.825,599.23329 679,593.50038 c -32.07926,-15.55244 -46.57579,-19.79615 -67.5,-19.75994 -19.30562,0.0334 -36.95955,4.77677 -62.86525,16.89097 -25.18719,11.7782 -32.02849,14.55373 -37.18469,15.0859 -4.0006,0.4129 -5.44055,0.14934 -6.84225,-1.25236 z"
     id="path3411" />
  <path
     id="path3407"
     style="fill:#000000"
     d="m 284.5,599.97026 c -24.4949,-1.16698 -32.37767,-2.04439 -34.51554,-3.84181 -2.54238,-2.13752 -3.83406,-13.7491 -1.81937,-16.35528 1.25494,-1.62337 2.41329,-1.52204 19.33491,1.69138 35.52303,6.74583 64.82128,8.30706 76.63341,4.08359 14.20807,-5.08014 19.00077,-18.29704 9.82325,-27.08967 -5.90462,-5.65698 -15.8628,-3.17875 -18.47084,4.59671 -0.6355,1.89465 -2.32404,4.10489 -3.7523,4.91165 -2.35062,1.32776 -2.79295,1.28936 -4.66518,-0.40498 -4.40457,-3.98608 -1.03999,-13.52677 6.68496,-18.95607 5.42325,-3.81161 14.07135,-4.70827 20.76284,-2.15277 5.35582,2.04541 11.65613,8.84092 13.30784,14.35383 5.18974,17.3218 -5.66258,31.6336 -27.77238,36.62561 -6.012,1.35741 -35.56434,3.88188 -39.5516,3.37865 -0.55,-0.0694 -7.75,-0.44779 -16,-0.84084 z m -128.57113,-7.4e-4 c -27.3129,-1.49734 -41.11329,-7.47141 -47.52294,-20.57226 -2.29242,-4.68554 -2.60266,-6.3576 -2.17294,-11.71102 C 107.33595,553.94565 116.31345,545 129,545 c 11.24832,0 21,8.07017 21,17.37891 0,8.22487 -7.71917,8.68403 -10.39981,0.61863 -2.52004,-7.5822 -12.69403,-10.156 -18.42851,-4.66202 -1.62781,1.55954 -3.50133,4.77023 -4.16339,7.13486 -2.58273,9.22462 4.9461,17.99427 17.99653,20.96253 14.08106,3.20266 42.58594,1.10933 75.86685,-5.5715 17.30328,-3.47348 17.09086,-3.52486 17.10744,4.13859 0.0149,6.89994 -1.63835,11.7008 -4.24745,12.33393 -8.04322,1.95178 -50.30818,3.59468 -67.80279,2.63559 z" />
  <path
     id="path3403"
     style="fill:#000000"
     d="m 143.28199,454.46287 c -14.87593,-4.00693 -27.31122,-13.68091 -33.34662,-25.94184 -3.18461,-6.46955 -3.43537,-7.67395 -3.43537,-16.5 0,-8.33801 0.34842,-10.26655 2.80414,-15.52103 5.4527,-11.6671 13.9982,-17.48046 25.69586,-17.48046 14.78259,0 25.92175,10.19671 25.97804,23.78012 0.0387,9.34967 -4.41763,14.20034 -13.04603,14.20034 -3.53004,0 -4.78032,-0.61302 -8.17605,-4.00874 -3.82456,-3.82456 -3.98656,-4.23957 -3.52601,-9.03264 0.31756,-3.30484 1.2348,-5.82442 2.68064,-7.36345 1.93749,-2.06236 2.00406,-2.41394 0.56187,-2.96736 C 138.57264,393.28251 136.13978,393 134.0661,393 125.93086,393 119,401.55185 119,411.58977 c 0,10.97738 6.18747,19.42417 18.8106,25.67918 8.04412,3.98602 9.03726,4.23105 17.14889,4.23105 8.33668,0 8.94952,-0.16494 19.28678,-5.19086 5.87208,-2.85498 16.2512,-8.98482 23.06473,-13.62188 12.72356,-8.65925 19.74302,-11.97298 27.9783,-13.20793 l 4.7107,-0.70642 0,12.11355 0,12.11354 -5.39466,0 c -7.72464,0 -17.03721,3.19106 -33.60534,11.51524 -7.975,4.00682 -17.5849,8.23004 -21.35534,9.38494 -7.99545,2.44904 -18.52511,2.67379 -26.36267,0.56269 z M 309,455.44269 c -3.99612,-0.85967 -13.62644,-4.87984 -25,-10.43625 -18.03307,-8.80981 -27.37991,-11.94436 -35.75,-11.98908 L 245,433 l 0,-11.6399 0,-11.63991 5.50297,0.56796 c 7.38003,0.76169 14.32238,4.09875 28.63583,13.76472 13.99391,9.45019 28.0951,16.51463 35.85483,17.96263 13.98751,2.61013 33.06925,-7.10821 39.0849,-19.90596 1.67651,-3.56661 2.04481,-5.92086 1.74801,-11.1735 -0.42246,-7.47663 -3.06083,-12.4618 -8.2029,-15.49929 -2.90108,-1.71371 -10.82711,-2.5654 -12.09379,-1.29953 -0.35069,0.35047 0.28494,2.15047 1.41252,4 1.23462,2.02509 2.05164,5.09318 2.05389,7.71278 0.007,8.34448 -9.29362,14.14173 -17.31271,10.79114 -7.81181,-3.26398 -10.02016,-13.5595 -5.04846,-23.53638 8.7521,-17.56319 34.8217,-18.52584 46.12362,-1.70317 7.3308,10.91175 8.29701,25.94906 2.43272,37.86112 -6.22463,12.64402 -20.30212,22.95905 -35.82053,26.24686 -8.32948,1.76472 -11.91142,1.75296 -20.3709,-0.0669 z" />
  <path
     style="fill:#000000"
     d="m 526.95549,449.96691 c -12.60964,-1.13706 -21.21082,-3.53548 -32.95549,-9.1896 -8.64727,-4.16297 -11.74867,-6.30969 -17.57662,-12.16611 -8.33632,-8.37705 -12.38673,-15.90009 -13.08566,-24.30469 -0.91733,-11.03079 5.86946,-18.67643 16.391,-18.46524 9.29666,0.1866 15.80689,9.29492 11.86945,16.6063 -2.31818,4.30459 -5.93447,6.07328 -8.06383,3.94392 -1.94413,-1.94413 -1.93928,-2.00021 0.51607,-5.97305 l 2.0504,-3.31763 -2.0504,-2.0504 c -2.95245,-2.95245 -8.08438,-2.70771 -11.1261,0.53059 -4.66406,4.96551 -1.94398,16.41887 5.65115,23.79517 5.36273,5.20821 18.4534,11.44233 26.17454,12.465 17.74805,2.35073 34.22484,-5.85247 42.23757,-21.02858 9.47215,-17.94023 17.13728,-24.57129 29.55524,-25.56809 11.07959,-0.88936 21.50614,3.45997 29.17196,12.1688 l 4.0476,4.59832 1.59929,-2.44084 c 8.23566,-12.56919 28.41767,-18.31546 41.28032,-11.75343 5.48281,2.79712 12.38974,10.68004 17.53342,20.011 5.52317,10.01939 11.35534,16.1364 19.06869,19.99999 11.9862,6.00385 25.35668,5.9349 38.25591,-0.19728 13.26497,-6.30605 20.59125,-15.33372 20.86328,-25.7084 0.0877,-3.34409 -0.41793,-4.57292 -2.68338,-6.52158 -2.93172,-2.52176 -6.57548,-3.06252 -9.62799,-1.42886 -2.85914,1.53016 -3.20313,3.90424 -0.99788,6.88699 2.62005,3.54381 1.69993,6.14079 -2.17572,6.14079 -3.55326,0 -6.86888,-4.75068 -6.87457,-9.85 -0.008,-7.07372 9.76431,-13.01152 17.98131,-10.92583 8.82915,2.24108 13.33819,10.43559 11.24179,20.43027 -1.80447,8.60285 -5.12483,14.28444 -12.88088,22.04093 -5.89772,5.89806 -9.05663,8.09159 -17.52046,12.16611 -12.01257,5.7829 -19.82814,7.87543 -34.01822,9.10801 -17.84625,1.55015 -44.108,-1.90404 -59.80728,-7.86642 -6.74857,-2.56302 -14.33191,-8.20501 -18.66617,-13.88761 l -3.25531,-4.26799 -1.47452,2.85142 c -1.84344,3.56482 -7.99456,9.17646 -13.72939,12.52527 -12.62805,7.37404 -45.38853,12.58423 -66.91912,10.64275 z"
     id="path3401" />
  <path
     id="path3397"
     style="fill:#000000"
     d="m 851.12308,439.75 c 2.17178,-4.09443 7.86749,-11.16268 14.16506,-17.57851 17.89717,-18.23326 46.27326,-29.15507 75.78036,-29.16747 14.88344,-0.006 25.28114,4.23151 30.90676,12.5966 3.28305,4.88179 4.06413,15.45059 1.51484,20.49742 -3.78904,7.50115 -10.34486,12.1676 -19.54538,13.91244 -7.66703,1.45403 -13.4869,-0.24369 -22.60908,-6.59528 -4.3096,-3.00069 -10.17526,-6.33179 -13.03479,-7.40244 -10.72184,-4.01442 -23.71346,-3.60584 -37.71309,1.18605 -6.53004,2.23514 -21.17415,9.38689 -26.08776,12.74048 -3.88645,2.65254 -4.85548,2.59822 -3.37692,-0.18929 z m 252.38632,-2.4357 c -28.2977,-16.85315 -50.951,-18.4225 -70.7344,-4.90026 -11.7846,8.05495 -16.5922,9.38313 -26.0197,7.18837 -7.19932,-1.67602 -12.00943,-4.869 -15.74933,-10.45445 -7.99551,-11.94112 -3.12901,-26.1724 11.18073,-32.69629 5.455,-2.48694 7.8088,-2.93058 17.3133,-3.26316 30.6156,-1.0713 61.9701,11.22717 80.6046,31.61631 4.9443,5.40983 13.4012,17.10184 12.735,17.60666 -0.1868,0.14154 -4.3854,-2.15219 -9.3302,-5.09718 z" />
  <path
     id="path3393"
     style="fill:#000000"
     d="m 640.26455,304.52293 c -17.77014,-5.00471 -27.27459,-15.2012 -27.25517,-29.23969 0.0133,-9.643 3.70583,-16.0183 11.48075,-19.82221 4.96479,-2.42905 6.36633,-2.66627 13.28022,-2.24778 9.38687,0.56817 15.69958,3.12231 26.02278,10.52887 15.55925,11.16325 27.34665,15.06892 39.57764,13.11376 21.94056,-3.50725 31.89789,-23.39154 21.94016,-43.81341 l -2.66109,-5.45752 -1.07492,3.17849 c -2.13622,6.31671 -6.62096,9.19477 -12.16104,7.8043 -8.89362,-2.23216 -10.03226,-14.14829 -1.72845,-18.08871 4.09886,-1.94504 7.54817,-1.3699 15.37456,2.56354 22.9718,11.54535 23.9708,43.48367 1.97803,63.23796 -9.08309,8.15859 -20.80159,13.79343 -36.03802,17.32889 -9.62717,2.23388 -41.89933,2.8388 -48.73545,0.91351 z M 534.5,304.39218 c -18.4241,-3.28951 -31.58645,-9.50789 -42.09244,-19.88604 -9.83672,-9.71703 -13.65907,-17.62457 -14.2014,-29.37931 -0.32569,-7.05931 -0.007,-9.66283 1.75167,-14.32846 4.1982,-11.13499 16.68314,-20.98655 26.87367,-21.20536 3.68771,-0.0792 4.76527,0.39238 7.25,3.17277 3.13322,3.50604 3.62656,6.58609 1.72381,10.76216 C 514.49948,236.39394 510.30596,239 507,239 c -1.75192,0 -7.96564,-2.53949 -8.01506,-3.27568 -0.008,-0.12338 -0.62428,-1.97439 -1.36888,-4.11337 l -1.35383,-3.88905 -3.337,6.77841 c -5.71342,11.60561 -4.24972,23.36583 4.09041,32.86472 12.41007,14.13429 35.62641,12.96551 56.93796,-2.86641 9.93206,-7.37833 18.19899,-10.88542 26.71297,-11.33248 8.49817,-0.44623 13.20278,0.90224 18.07618,5.18114 4.87642,4.28155 7.20852,9.82756 7.23529,17.20638 0.0494,13.60965 -10.28344,24.4257 -27.65764,28.9511 -7.39478,1.9261 -32.76711,1.86091 -43.8204,-0.11258 z" />
  <path
     id="path3389"
     style="fill:#000000"
     d="m 1071.7634,296.96719 c -10.7695,-1.81339 -21.8363,-6.66093 -35.2634,-15.44624 -4.4,-2.8789 -9.4887,-5.99897 -11.3083,-6.93347 C 1019.2356,271.52846 1007.0549,269 998.2743,269 c -11.45967,0 -12.63273,-0.73224 -11.74206,-7.32955 1.27391,-9.4361 2.34345,-9.94575 15.15236,-7.22028 14.3325,3.04964 25.3922,8.09681 42.5651,19.42485 13.8598,9.14255 19.2388,11.82023 28.5061,14.19042 18.4881,4.72843 35.5856,0.56602 43.2131,-10.5203 9.5775,-13.92034 4.8573,-32.46963 -10.1676,-39.95687 -6.2781,-3.12849 -11.6716,-3.28357 -17.7833,-0.51132 -5.6281,2.55286 -7.7368,4.45517 -10.1244,9.13321 -6.6518,13.03305 5.2083,28.10609 17.5187,22.26445 6.899,-3.27382 8.5756,-10.64056 3.5625,-15.65362 -2.4486,-2.44866 -3.5433,-2.89511 -5.7444,-2.34269 -4.217,1.05841 -5.2304,2.42188 -5.2304,7.03716 0,4.66878 -1.7368,6.23094 -4.9912,4.48927 -4.3071,-2.3051 -3.0567,-10.93286 2.3001,-15.87055 3.4807,-3.20847 10.2228,-3.92475 15.1106,-1.60536 5.5542,2.63567 8.5813,7.73679 8.5768,14.45331 -0.01,10.18097 -6.8333,17.158 -17.4487,17.83394 -7.5805,0.48269 -12.6084,-1.7326 -17.8616,-7.86977 -13.8964,-16.23484 -0.1323,-40.92676 22.814,-40.92676 12.0063,0 22.0366,6.46851 28.2158,18.19631 2.5333,4.80798 2.7842,6.23034 2.7842,15.78415 0,9.74741 -0.2106,10.88013 -2.9381,15.80355 -1.6159,2.91696 -4.7187,6.91229 -6.8951,8.87853 -10.0015,9.03577 -28.5893,13.20053 -45.9034,10.28511 z M 865.31717,296.5665 c -9.27459,-2.12031 -14.7369,-4.90448 -20.71552,-10.55881 -7.49406,-7.08757 -9.99644,-13.0672 -10.05563,-24.02872 -0.0414,-7.66206 0.2853,-9.19403 3.24073,-15.19736 3.47183,-7.0523 9.41829,-13.16296 15.98787,-16.42935 2.79536,-1.38985 5.97217,-1.85226 12.72538,-1.85226 7.98673,0 9.51934,0.30531 13.61285,2.71178 5.48999,3.22743 10.29788,8.46319 12.46605,13.57545 2.47734,5.84126 1.55968,16.6009 -1.87228,21.95266 -3.78504,5.90235 -9.57191,9.50147 -16.15475,10.04737 -6.85126,0.56816 -11.41416,-0.98289 -15.80317,-5.37189 -6.342,-6.342 -7.19229,-15.37091 -2.0875,-22.16642 8.36174,-11.13119 25.3388,-6.35409 25.3388,7.12996 0,3.12248 -2.03836,6.64601 -3.82143,6.60578 -2.19192,-0.0495 -3.67857,-2.30812 -3.67857,-5.58882 0,-2.82441 -0.62244,-4.14137 -2.68631,-5.68374 -2.37702,-1.77639 -3.04346,-1.8596 -5.78822,-0.72268 -3.69539,1.53068 -5.02547,3.70686 -5.02547,8.2223 0,8.09955 9.34564,13.24647 16.93054,9.32417 12.88086,-6.66095 11.55818,-23.92134 -2.37688,-31.0172 -9.09164,-4.62954 -17.25746,-2.89312 -25.59276,5.44218 -6.24643,6.24644 -7.96633,10.49802 -7.95113,19.65512 0.0178,10.73954 6.36649,20.00879 16.89381,24.66553 6.5714,2.90684 20.05512,3.48011 29.33476,1.24718 9.61707,-2.31412 14.8971,-4.89303 29.79363,-14.552 6.85742,-4.44637 16.23921,-9.90091 20.84843,-12.1212 C 947.78959,257.56392 963.81123,253 969.96771,253 974.47104,253 976,255.54172 976,263.028 c 0,5.83382 0.49221,5.62583 -15,6.33819 -13.48641,0.62012 -21.4467,3.33409 -34.00358,11.59311 -11.85088,7.79468 -18.55953,11.2081 -27.49642,13.99044 -9.06618,2.82259 -25.50697,3.6002 -34.18283,1.61676 z" />
  <path
     style="fill:#000000"
     d="m 157.5,296.01554 c -17.98048,-2.05099 -34.47648,-9.28409 -49,-21.4853 -3.54726,-2.98005 -3.34892,-3.00581 7,-0.90903 10.11105,2.04859 31.06857,2.32397 38.5,0.50588 15.28507,-3.73947 27.07999,-12.56615 35.06747,-26.24262 C 196.91933,234.44023 204.81684,229 216.48179,229 c 6.3804,0 14.34435,3.75256 18.3962,8.66815 l 2.87485,3.48769 2.18893,-3.07406 c 1.20391,-1.69074 4.29702,-4.3133 6.87358,-5.82792 4.0681,-2.39142 5.73753,-2.75158 12.68465,-2.73655 12.54292,0.0271 16.72514,2.91242 26.79066,18.48269 9.21338,14.25209 17.40048,20.7443 31.70934,25.14486 6.27221,1.92896 9.62818,2.29537 20.5,2.23817 7.82179,-0.0411 16.34899,-0.7321 21.40771,-1.73467 4.62423,-0.91645 8.59583,-1.47815 8.82577,-1.24821 0.97254,0.97254 -13.93887,11.11929 -22.23348,15.1292 -20.64877,9.98236 -42.90525,11.62578 -68.70581,5.07324 -17.9215,-4.5515 -32.08827,-12.87022 -37.88162,-22.24406 l -2.10067,-3.39895 -2.75336,3.80091 c -4.01195,5.53833 -11.55149,11.85439 -17.52276,14.67926 -17.71221,8.37922 -41.91518,12.64276 -60.03578,10.57579 z"
     id="path3387" />
  <path
     style="fill:#000000"
     d="m 167.5,144.95609 c -29.27974,-4.5408 -52.73313,-21.79974 -59.53587,-43.81143 -4.77651,-15.455365 -0.55773,-28.292099 10.25505,-31.203679 3.13127,-0.843162 4.58523,-0.678741 8.22141,0.929716 9.37422,4.146661 10.5671,16.871259 2.07372,22.12046 -3.631,2.24408 -11.39697,2.726187 -13.29764,0.82551 -2.06423,-2.064226 -2.26374,-0.311827 -0.54237,4.763751 2.34204,6.905652 12.00892,16.428212 21.00042,20.686892 6.02727,2.85473 7.81909,3.23269 15.32528,3.23269 7.09447,0 9.42931,-0.43574 14.12001,-2.63517 7.32494,-3.43458 12.63725,-8.33153 19.23064,-17.72699 C 194.68305,87.414352 201.97188,82.596333 213,83.200214 c 8.06154,0.441436 14.86753,3.582759 20.50121,9.462389 l 4.11961,4.29946 4.25675,-4.337321 c 5.97339,-6.086431 12.17615,-8.96995 20.3287,-9.450332 5.36434,-0.316089 7.58954,0.03242 11.12041,1.741687 5.62199,2.721557 11.57818,8.673863 17.72274,17.711183 8.50543,12.50964 18.53299,19.11749 30.5228,20.11355 14.28892,1.18706 31.75862,-9.02867 38.03356,-22.24083 2.98101,-6.276651 3.0986,-7.947339 0.45996,-6.535184 -2.92191,1.563759 -9.90738,1.241802 -13.02591,-0.600357 -9.08863,-5.368791 -7.65268,-19.055477 2.4021,-22.895434 6.87805,-2.626749 13.98936,0.658994 17.60898,8.13614 1.87085,3.864656 2.1283,5.758836 1.75345,12.900738 -0.62019,11.816027 -5.25689,21.093617 -15.72887,31.471927 -16.98125,16.82936 -38.62463,23.92066 -69.45226,22.75555 -7.76778,-0.29358 -16.59823,-1.07802 -19.62323,-1.7432 -7.58611,-1.66814 -18.27119,-7.44107 -22.56078,-12.18914 l -3.57775,-3.96014 -5.18074,4.893 c -5.42462,5.12334 -13.3702,9.43709 -20.79251,11.2885 -5.83665,1.45589 -36.81878,2.10758 -44.38822,0.93369 z"
     id="path3385" />
  <path
     id="path3381"
     style="fill:#000000"
     d="m 653.5,135.96803 c -25.47094,-1.41134 -31.67678,-2.14483 -33.49027,-3.95832 -2.92591,-2.92591 -3.49941,-24.85338 -0.72264,-27.63015 0.29762,-0.29762 6.30333,1.33351 13.34602,3.62474 29.25023,9.51613 52.25573,14.25629 69.86689,14.39569 10.52471,0.0833 12.62924,-0.18949 17.11826,-2.21898 9.60067,-4.34048 14.55724,-12.26755 12.42159,-19.86594 -0.58976,-2.0983 -1.6275,-4.510741 -2.30607,-5.360981 C 727.83184,92.571036 723.74255,90 721.85414,90 c -1.55849,0 -1.57467,0.252938 -0.19331,3.021946 4.66268,9.346564 -6.20126,20.737814 -15.87426,16.644764 -9.60485,-4.0642 -10.70412,-15.218976 -2.35602,-23.907579 4.48294,-4.665792 8.42169,-6.184197 16.14327,-6.223305 6.16225,-0.03121 7.70524,0.354179 11.97357,2.99061 7.1117,4.392705 10.79265,10.799731 11.29312,19.656704 0.49928,8.83602 -1.42275,14.04926 -7.42391,20.13642 -11.96196,12.13334 -36.24449,16.17917 -81.9166,13.64849 z M 524,135.93763 C 498.44725,134.05667 485.26122,128.23508 478.51368,115.85555 469.69629,99.678549 481.25935,79 499.12262,79 510.83458,79 521,87.885792 521,98.123443 c 0,11.160757 -13.12838,16.594337 -21.02208,8.700627 -3.42017,-3.42017 -4.63048,-8.513368 -3.07999,-12.961115 1.45444,-4.172208 0.75338,-4.668519 -3.41986,-2.421081 C 489.87634,93.381534 486,99.812308 486,103.84784 c 0,6.19034 5.2493,12.54726 13.5,16.34855 4.43127,2.04158 6.42183,2.29073 17.5,2.19035 17.37446,-0.15742 40.17118,-4.96456 71.36384,-15.04847 8.79675,-2.8438 11.06737,-3.26521 11.75423,-2.18147 1.40985,2.22448 1.07171,24.2014 -0.40341,26.21875 -1.62308,2.21969 -9.58888,3.26468 -35.07662,4.60153 -21.03938,1.10352 -25.16517,1.09952 -40.63804,-0.0394 z" />
  <path
     id="path3173"
     style="fill:#000000"
     d="m 1023.6074,135.32759 c -17.8101,-2.39112 -27.82077,-7.30993 -33.78127,-16.59856 -2.91415,-4.54132 -3.32196,-5.99125 -3.29243,-11.70619 0.0384,-7.442996 1.73825,-11.470098 7.32648,-17.357594 5.26821,-5.550324 10.58132,-8.052997 17.13982,-8.073494 7.3698,-0.02303 14.1637,3.245278 25.5,12.267247 6.2981,5.012284 10.6337,7.647721 14.4417,8.778491 13.81,4.10078 32.9651,-2.943714 47.7933,-17.576545 l 6.525,-6.439036 -0.4841,11.939036 c -0.5611,13.841055 -2.6327,20.548055 -8.7285,28.259855 -12.0509,15.24555 -37.9229,21.14097 -72.44,16.50679 z M 898.5,135.59681 c -19.142,-3.7353 -32.5742,-13.16101 -37.49406,-26.31051 -2.70718,-7.23558 -4.46559,-19.73545 -3.59395,-25.54797 l 0.68255,-4.551597 4.62464,4.944113 c 12.80239,13.686788 35.01115,22.474894 47.93816,18.969334 4.09681,-1.11097 6.11746,-2.38236 20.54988,-12.929963 9.43122,-6.892592 12.97948,-8.38623 20.29278,-8.542241 7.28465,-0.155401 13.52346,3.049268 18.74294,9.627619 4.62888,5.834 5.76067,8.901015 5.7351,15.541435 -0.0279,7.25394 -2.45153,12.6084 -7.95173,17.56778 -5.79319,5.22357 -12.76564,8.23108 -23.52631,10.14786 -12.55347,2.23613 -37.12836,2.81532 -46,1.08414 z" />
</svg>
